<svg fill="none" height="100%" viewBox="0 0 200 128" width="100%" xmlns="http://www.w3.org/2000/svg">
<g clip-path="url(#clip0_1_2411)">
<path d="M69.2144 51.6352C73.8347 52.2496 78.6081 51.0463 84.0836 50.8671C93.873 50.5343 103.688 50.5088 113.439 50.7136C117.511 50.8032 121.493 50.6239 125.475 50.4703C129.674 50.3039 133.133 51.4816 137.204 49.9328C144.058 47.3728 142.31 39.9743 142.807 34.4319C142.935 33.152 144.556 30.9632 146.636 28.2112C148.257 26.0096 152.112 20.5312 151.601 18.688C151.333 17.728 147.862 16 146.151 16.4864C143.241 17.3184 140.918 27.1103 139.234 26.3807C138.146 25.7049 137.239 24.7735 136.592 23.6671C135.601 21.8977 134.47 20.2112 133.209 18.6239C131.793 16.4991 129.38 14.7839 127.542 12.8255C126.202 11.3663 123.535 12.7488 122.59 13.8752C120.599 16.2432 123.65 17.9456 125.232 19.4176C127.336 21.4442 129.214 23.693 130.835 26.1248C132.558 28.6848 136.004 33.92 135.941 35.52C135.813 38.5664 136.387 40.9728 134.843 42.3552C130.095 46.6304 112.929 44.9151 108.5 45.3503C93.5156 46.8223 80.4205 44.1855 65.5897 46.7455C64.1857 47.1167 64.2367 49.8688 65.0408 51.3664C65.4492 52.16 67.9381 51.4688 69.2144 51.6352Z" fill="black"></path>
<path d="M96.1703 56.4864C94.8489 56.8173 93.6843 57.6005 92.8774 58.7008C92.0605 60.4416 92.8774 63.5392 92.9667 65.4208C93.2475 70.7888 93.2475 76.168 92.9667 81.536C92.7753 85.7472 92.9667 89.856 92.5072 94.0544C92.4183 96.5119 92.0501 98.9511 91.4096 101.325C91.0585 102.209 90.4989 102.995 89.7788 103.615C89.0586 104.234 88.1994 104.67 87.2747 104.884C86.35 105.098 85.3873 105.084 84.4692 104.843C83.5511 104.602 82.7049 104.141 82.0031 103.501C78.4421 99.8912 79.1314 89.8048 79.1952 83.776C79.1952 83.0848 79.1952 82.496 79.1952 81.9072C79.1952 80.6272 79.1952 79.3472 79.1952 78.0672C79.2845 74.0736 79.1952 70.08 79.0676 66.1248C79.0037 64.4224 78.5315 62.7712 78.3655 61.0816C78.3616 59.7562 77.912 58.4709 77.0892 57.4336C75.9788 56.4736 73.5794 56.512 72.2137 56.704C69.0995 57.152 68.0146 58.6496 68.5251 61.6832C69.1889 65.5789 69.6151 69.5115 69.8014 73.4592C69.9929 77.5424 69.5589 81.664 69.4823 85.7344C69.3802 90.9568 69.2526 96.8832 70.631 102.285C71.2564 104.742 73.2603 110.669 78.3911 112.666C80.4809 113.511 82.6424 114.167 84.8493 114.624C85.0663 114.624 86.7893 114.714 87.0063 114.726C88.9846 114.88 90.0695 114.278 92.0222 114.138C93.6069 114.153 95.1697 113.765 96.5646 113.011C97.9595 112.257 99.1412 111.16 99.9993 109.824C101.212 107.84 101.122 105.459 101.339 103.232C101.556 101.005 101.531 98.4192 101.595 96.0384C101.722 91.0208 101.684 86.0032 101.837 80.9984C102.003 75.5968 102.437 70.1952 102.692 64.832C102.896 60.7616 101.416 55.104 96.0937 56.4864H96.1703Z" fill="black"></path>
<path d="M60.2687 65.5488C60.2353 64.5687 60.1243 63.5929 59.9368 62.6304C59.7362 61.5742 59.6125 60.5047 59.5667 59.4304C59.4838 55.7881 59.2155 52.1525 58.7626 48.5376C58.4735 45.4252 57.4068 42.4361 55.6611 39.8464C54.022 37.5374 51.86 35.6513 49.3529 34.3429C46.8457 33.0345 44.0649 32.3413 41.2387 32.32C39.7328 32.286 38.2275 32.4061 36.746 32.6784C35.291 32.9728 32.5469 33.8176 31.0408 34.1248C28.7052 34.6112 27.7607 35.2 25.425 35.6608C20.5367 36.6208 15.1379 38.4384 14.0275 43.8272C13.4276 46.6944 13.5935 53.5808 18.1244 52.7872C22.0172 52.1216 19.5284 49.7024 19.9241 47.6672C20.843 42.8544 26.3057 46.2976 25.8079 50.3296C25.4548 53.5852 25.3183 56.8607 25.3995 60.1344C25.3995 60.9152 25.3995 61.6832 25.3995 62.464C25.3995 67.3536 25.3995 73.1392 25.5144 79.0272C25.5144 79.8464 25.5909 80.6912 25.642 81.5104C25.7546 82.7272 25.7972 83.9495 25.7696 85.1712C25.693 86.7712 25.9994 87.7312 24.6209 88.7552C23.7502 89.3551 22.7767 89.789 21.7492 90.0352C20.8291 90.4101 20.0031 90.9843 19.3301 91.7168C18.6571 92.4492 18.1539 93.3218 17.8564 94.272C16.8864 97.1904 19.6433 97.4976 22.1576 98.4576L23.1404 98.8032C24.4805 99.2384 25.8334 99.584 27.1736 100.006C30.1729 100.966 33.0319 101.926 36.1078 102.669C38.6117 103.417 41.1731 103.957 43.7658 104.282C47.0077 104.512 49.0626 103.526 51.7556 101.952C57.3076 98.7136 60.1921 92.352 60.4729 86.1056C60.4729 85.1072 60.6133 84.0704 60.7154 83.0592C61.111 78.9632 60.4218 74.5216 60.358 70.3872C60.358 68.8256 60.2942 67.2128 60.2814 65.6256L60.2687 65.5488ZM50.0581 80.1408C49.9687 81.5104 49.7645 82.7008 49.5731 84.096C49.3979 86.3473 48.9697 88.5715 48.2967 90.7264C47.1991 93.4528 44.4678 92.5696 42.247 92.0704C40.2559 91.6352 36.6822 91.5968 35.0995 90.304C34.0019 89.408 34.6401 88.1408 34.806 86.912C35.2207 83.6698 35.336 80.3963 35.1506 77.1328C35.074 75.6224 34.9847 74.048 34.9719 72.4992C34.9719 67.3792 34.8698 61.5424 35.074 55.8592C35.0637 53.507 34.8502 51.1601 34.4359 48.8448C34.1566 47.6821 33.9941 46.4944 33.9509 45.2992C34.0415 44.7829 34.3119 44.3155 34.7139 43.9803C35.1158 43.6452 35.6234 43.4639 36.1461 43.4688C37.3541 43.2222 38.5783 43.0639 39.8092 42.9952C41.3131 43.2205 42.7356 43.8237 43.9445 44.7488C47.1225 46.9504 48.5392 51.0592 48.8711 54.7712C48.9987 56.0512 49.1136 57.5104 49.3433 58.8544C49.9844 62.4967 50.2963 66.1895 50.2751 69.888C50.2751 73.28 50.275 76.7744 50.0964 80.128L50.0581 80.1408Z" fill="black"></path>
<path d="M65.054 19.4816C68.615 17.6768 67.9895 24.3712 67.913 25.9712C67.5369 30.8256 67.4347 35.6973 67.6067 40.5632C67.7598 42.9568 71.0783 41.9456 73.1332 41.6512C73.9883 41.5232 73.4522 37.2608 73.5543 35.1104C73.5543 34.2784 73.3501 31.2704 74.1925 30.656C75.0349 30.0416 80.3316 30.1696 81.8504 30.1568C82.7056 30.1568 82.2971 31.8336 82.3993 33.1776C82.5652 35.4304 81.3016 40.5248 82.3993 41.2544C83.4969 41.984 87.8492 41.8048 88.3725 40.96C88.7171 40.4224 88.449 39.3984 88.4746 38.784C88.5384 37.6192 88.8192 35.8272 88.8447 34.6624C88.9723 30.2848 89.1255 27.712 89.1127 23.936C89.1127 21.9392 88.8447 19.9552 88.8574 17.9712C88.8574 16.8448 88.8575 15.7696 88.7554 14.6816C88.6533 13.5936 89.3169 12.672 88.7554 11.8144C88.3725 11.1616 88.3086 11.328 87.479 11.4176C86.6494 11.5072 86.2027 11.5584 85.5135 11.584C84.3776 11.584 82.8204 11.4944 82.4886 12.6848C82.4517 13.1482 82.4862 13.6144 82.5907 14.0672C82.5944 15.2562 82.6625 16.4441 82.7949 17.6256C82.9672 18.9667 83.0056 20.3217 82.9098 21.6704C82.8077 23.9232 82.4376 24.5376 81.7101 24.6528C80.204 24.9088 75.4178 25.7152 74.0521 24.8064C73.1842 24.2176 73.1842 21.8752 73.1587 20.9664C73.0731 19.3519 72.8856 17.7444 72.5971 16.1536C72.2142 13.504 69.1638 14.0928 67.0578 14.4256C65.7238 14.5837 64.4339 15.0043 63.2621 15.6633C62.0904 16.3222 61.0598 17.2065 60.2295 18.2656C58.7617 20.2112 59.0681 25.3696 62.7822 24.3328C63.7266 24.064 64.9519 22.8224 64.8243 21.7728C64.6966 20.7232 63.3693 20.352 65.054 19.4816Z" fill="black"></path>
<path d="M98.7243 26.4192C98.5967 28.3264 99.2093 32.384 98.9413 34.2784C98.5967 36.6464 97.5501 35.8912 96.9119 38.0416C96.758 38.8983 96.8283 39.7804 97.1161 40.6016C97.3282 40.915 97.6451 41.142 98.0096 41.2416C98.635 41.3312 101.545 40.9728 102.234 40.96C104.621 40.96 107.008 40.768 109.394 40.5504C111.398 40.3712 113.479 40.448 115.419 40.256C116.593 40.1408 120.383 40.9216 120.524 39.1808C120.476 38.1194 120.353 37.0628 120.154 36.0192C120.013 34.7392 119.822 34.816 118.469 34.7392C116.966 34.7072 115.463 34.8057 113.976 35.0336C112.368 35.2 106.791 35.7632 105.514 35.3408C104.966 34.7392 104.991 31.3088 104.863 29.9392C104.761 28.864 105.757 28.8896 107.416 28.7744C109.969 28.5824 112.726 28.7744 115.342 28.7744C116.516 28.7744 116.21 28.4032 116.389 27.1872C116.503 26.3936 116.631 24.4224 116.146 24.256C114.849 23.9167 113.517 23.7362 112.177 23.7184C110.033 23.5776 107.914 23.6032 105.795 23.4624C104.519 23.3728 104.378 23.2448 104.519 22.0416C104.659 20.8384 104.149 17.5616 104.2 17.024C104.276 16.0512 108.029 16.6912 111.066 16.7168C112.228 16.7168 114.666 17.3696 115.495 16.384C116.108 15.6416 115.699 15.2832 115.827 14.3744C115.916 13.7984 116.172 12.6464 115.75 12.224C115.125 11.6224 110.747 11.1872 109.535 11.0592C106.736 10.7045 103.919 10.5165 101.098 10.496C100.511 10.496 96.8608 10.56 96.5162 11.3792C95.0612 14.9248 97.9585 15.8976 98.4435 17.5104C99.1199 19.776 98.9796 24.1792 98.8392 26.5472L98.7243 26.4192Z" fill="black"></path>
<path d="M180.957 89.3569C180.022 89.7418 179.063 90.0625 178.085 90.3169C177.281 90.5473 176.439 90.7649 175.469 91.0977C173.005 91.9553 170.185 91.84 167.811 92.9921C166.381 93.696 166.534 92.1985 166.534 91.1745C166.534 89.8945 166.534 88.6145 166.636 87.3345C166.726 85.1713 167.249 77.312 167.172 76.4672C166.955 74.24 167.696 72.8192 169.993 72.6272C171.894 72.5312 173.798 72.5312 175.698 72.6272C177.281 72.6272 180.74 73.1136 181.403 72.384C182.476 71.2064 181.952 68.1089 181.799 66.6753C181.582 64.5377 180.765 63.808 178.468 63.8208C176.4 63.8208 174.333 63.8208 172.265 63.8208C170.989 63.8208 168.564 64.7553 168.206 63.3345C167.859 61.5713 167.667 59.7809 167.632 57.984C167.649 55.4646 167.465 52.9478 167.083 50.4577C167.083 50.0993 167.083 49.7409 167.019 49.4081V48.7297C167.001 48.3906 166.963 48.0529 166.904 47.7185C166.829 47.3655 166.727 47.0188 166.598 46.6817C165.169 42.5729 168.895 43.9169 171.423 44.6081L172.559 44.9281C173.468 45.2195 174.359 45.5657 175.226 45.9649C176.743 46.7776 178.422 47.2411 180.14 47.3217C181.416 47.2065 181.901 45.7856 182.488 43.7888C182.922 42.3168 183.765 39.6417 181.914 38.8481C179.361 37.7473 176.502 37.5681 173.899 36.4929C170.24 34.8728 166.49 33.4709 162.667 32.2945C160.685 31.8309 158.678 31.4805 156.656 31.2449C155.022 30.9761 153.209 30.4512 151.55 30.9888C150.389 31.5008 151.78 35.7889 152.661 37.7217C153.235 39.0017 154.473 39.4752 155.379 40.4224C156.553 41.7024 156.566 43.1232 156.49 44.7872C156.107 53.7472 157.868 62.7072 157.396 71.6672C157.141 76.5312 157.919 81.3697 157.817 86.2081C157.824 87.4913 157.751 88.7738 157.6 90.0481C157.268 92.3905 157.791 95.0272 156.26 97.0624C154.333 99.6224 150.031 107.136 156.362 106.944C157.566 106.875 158.755 106.642 159.897 106.253C162.693 105.331 165.437 104.397 168.168 103.245C169.682 102.639 171.229 102.117 172.801 101.683C175.298 101.1 177.682 100.11 179.859 98.7521L180.587 98.2656C181.966 97.5543 183.113 96.4616 183.892 95.1169C184.316 93.1492 183.988 91.0937 182.973 89.3569C182.425 88.6401 181.608 89.1521 180.957 89.4337V89.3569Z" fill="black"></path>
<path d="M144.85 67.2512C144.525 66.6671 144.092 66.1502 143.574 65.728C143.114 65.2928 140.434 61.2736 139.745 60.736C136.248 58.176 132.929 57.4976 128.717 57.1392C125.693 56.7876 122.649 56.6209 119.604 56.64C116.95 56.7552 113.478 56.0512 110.989 57.1648C109.317 57.9072 109.968 60.6208 110.645 62.1056C111.117 63.1552 113.197 65.1648 113.644 66.0352C114.488 67.9689 114.881 70.0703 114.793 72.1792C114.563 73.9712 114.525 75.8144 114.435 77.6192C114.231 81.6896 114.18 85.7728 114.193 89.8432C114.193 89.8432 114.422 100.198 114.461 100.698C114.715 101.896 114.78 103.127 114.652 104.346C114.371 105.421 113.631 105.626 112.827 106.381C111.068 108.058 110.021 110.35 109.904 112.781C109.802 114.701 111.704 114.701 113.453 114.995C115.373 115.466 117.372 115.51 119.311 115.123C120.383 114.842 121.953 114.765 122.974 114.496C123.527 114.347 124.09 114.24 124.659 114.176C127.83 113.717 130.95 112.954 133.976 111.898C136.884 111.003 139.578 109.517 141.889 107.533C146.994 103.04 149.279 86.9376 148.551 80.256C148.027 75.753 146.777 71.3651 144.85 67.264V67.2512ZM136.835 96.6912C135.923 99.0068 134.34 100.995 132.291 102.4C130.462 103.235 128.5 103.737 126.497 103.885C126.06 103.905 125.625 103.83 125.22 103.667C124.981 103.562 124.773 103.397 124.614 103.189C124.456 102.981 124.352 102.736 124.314 102.477C123.711 97.0933 123.477 91.6748 123.612 86.2592V84.8896C123.612 79.0528 123.612 73.3696 123.357 67.4816C123.242 64.832 128.462 66.88 129.943 67.0592C131.427 67.0299 132.869 67.5545 133.989 68.5312C135.208 69.8564 136.047 71.4889 136.414 73.2544C137.422 77.0944 138.736 80.5632 138.89 84.5312C139.124 88.6838 138.422 92.8359 136.835 96.6784V96.6912Z" fill="black"></path>
<path d="M48.8447 54.7584C48.5129 51.0464 47.0961 46.9376 43.9181 44.736C42.7093 43.8109 41.2867 43.2076 39.7828 42.9824C38.5725 43.0813 37.3701 43.261 36.1836 43.52C35.6615 43.5176 35.1552 43.6998 34.7538 44.0345C34.3523 44.3693 34.0813 44.8352 33.9883 45.3504C34.0323 46.5454 34.1947 47.7332 34.4733 48.896C34.8755 51.2129 35.089 53.5587 35.1115 55.9104C34.9072 61.6064 34.9583 67.4304 35.0093 72.5504C35.0093 74.0992 35.1114 75.6736 35.188 77.184C35.3734 80.4474 35.2581 83.721 34.8434 86.9632C34.6775 88.2432 34.0393 89.4592 35.137 90.3552C36.7196 91.6352 40.2423 91.6352 42.2844 92.1216C44.518 92.6208 47.2365 93.504 48.3342 90.7776C49.0132 88.6242 49.4415 86.3993 49.6105 84.1472C49.8147 82.8032 50.0061 81.5872 50.0955 80.192C50.3125 76.8128 50.2359 73.3312 50.2869 69.952C50.2952 66.254 49.9835 62.5623 49.3552 58.9184C49.0872 57.4976 48.9468 56.1024 48.8447 54.7584Z" fill="white"></path>
<path d="M136.465 73.2416C136.09 71.479 135.253 69.8486 134.04 68.5184C132.92 67.5417 131.478 67.0171 129.994 67.0464C128.552 66.8672 123.293 64.832 123.408 67.4688C123.689 73.3184 123.676 78.9888 123.663 84.8768V86.2464C123.528 91.662 123.763 97.0805 124.365 102.464C124.404 102.723 124.507 102.968 124.665 103.176C124.824 103.385 125.032 103.549 125.272 103.654C125.676 103.819 126.112 103.893 126.548 103.872C128.553 103.731 130.516 103.228 132.342 102.387C134.398 100.972 135.981 98.9697 136.886 96.64C138.482 92.7946 139.197 88.6393 138.979 84.48C138.788 80.5504 137.473 77.0432 136.465 73.2416Z" fill="white"></path>
<path d="M193.044 26.2272C188.844 22.3872 183.433 20.2624 178.111 18.2528C152.52 8.57601 123.701 -0.588817 96.0046 0.0255825C68.6658 0.639982 37.5107 11.6736 12.4692 22.4768C10.2513 23.3116 8.16283 24.458 6.26627 25.8816C-2.87221 33.4336 0.675968 47.3088 0.675968 57.3056C0.675968 66.5088 0.573853 75.712 0.586616 84.9152C0.586616 99.6352 0.892949 102.515 14.2816 108.723C25.8451 114.086 42.2714 118.848 54.6772 122.138C84.0327 129.933 115.813 129.69 145.296 122.893C160.293 119.437 173.963 113.843 187.645 107.046C190.862 105.625 193.848 103.727 196.502 101.414C200.944 97.0624 199.438 92.5312 199.885 81.5616C200.331 70.8224 199.285 60.096 198.876 49.3696C198.545 40.7168 200.319 32.7296 193.044 26.2144V26.2272ZM96.4131 11.2384C96.7577 10.4192 100.408 10.4064 100.995 10.3552C103.816 10.3756 106.633 10.5637 109.432 10.9184C110.644 11.0464 115.035 11.4816 115.647 12.0832C116.26 12.6848 115.813 13.6576 115.724 14.2336C115.596 15.1424 116.005 15.5136 115.392 16.2432C114.562 17.2288 112.125 16.5888 110.963 16.576C107.951 16.576 104.173 15.9232 104.097 16.8832C104.097 17.408 104.53 20.7232 104.416 21.9008C104.301 23.0784 104.416 23.1808 105.692 23.3216C107.823 23.4624 109.942 23.4368 112.074 23.5776C113.413 23.6013 114.745 23.7817 116.043 24.1152C116.528 24.2816 116.4 26.2528 116.285 27.0464C116.12 28.2496 116.413 28.5824 115.239 28.6336C112.622 28.7488 109.904 28.4928 107.313 28.6336C105.692 28.7488 104.684 28.7232 104.76 29.7984C104.901 31.168 104.862 34.6112 105.411 35.2C106.687 35.6224 112.278 35.0592 113.873 34.8928C115.36 34.6713 116.863 34.5728 118.366 34.5984C119.719 34.688 119.897 34.5984 120.051 35.8784C120.249 36.922 120.373 37.9786 120.421 39.04C120.293 40.7808 116.502 40 115.315 40.1152C113.375 40.32 111.295 40.2304 109.291 40.4096C106.904 40.6272 104.518 40.7808 102.131 40.8192C101.442 40.8192 98.5317 41.1904 97.9063 41.1008C97.5419 41.0012 97.225 40.7742 97.0129 40.4608C96.7251 39.6395 96.6548 38.7575 96.8087 37.9008C97.4469 35.7504 98.5062 36.5056 98.8381 34.1376C99.1061 32.2432 98.5062 28.1856 98.6211 26.2784C98.9055 23.258 98.7723 20.2126 98.2254 17.2288C97.7404 15.6288 94.8432 14.6688 96.2982 11.1104L96.4131 11.2384ZM60.676 82.9824C60.5739 83.9808 60.4718 85.0176 60.4335 86.0288C60.1527 92.2752 57.2682 98.6496 51.7162 101.875C49.0232 103.45 46.9683 104.435 43.7264 104.205C41.1337 103.88 38.5723 103.341 36.0685 102.592C32.9925 101.85 30.1335 100.89 27.1342 99.9296C25.794 99.5072 24.4284 99.1616 23.101 98.7264L22.1182 98.3808C19.5656 97.4208 16.847 97.1008 17.817 94.1952C18.1145 93.245 18.6178 92.3724 19.2907 91.64C19.9637 90.9075 20.7897 90.3333 21.7098 89.9584C22.7383 89.7153 23.7124 89.2811 24.5815 88.6784C25.96 87.6416 25.6536 86.7072 25.7302 85.0944C25.7578 83.8727 25.7152 82.6504 25.6026 81.4336C25.6026 80.6144 25.4877 79.7696 25.4749 78.9504C25.3856 73.0624 25.3728 67.2768 25.3601 62.3872C25.3601 61.6064 25.3601 60.8384 25.3601 60.0576C25.2789 56.7839 25.4154 53.5084 25.7685 50.2528C26.279 46.2208 20.8036 42.7776 19.8847 47.5904C19.4762 49.7024 21.9778 52.1216 18.085 52.7104C13.5541 53.4784 13.4009 46.592 13.988 43.7504C15.1112 38.3616 20.5101 36.544 25.3856 35.584C27.7213 35.1232 28.6658 34.5344 31.0014 34.048C32.5075 33.7408 35.2388 32.896 36.7066 32.6016C38.1881 32.3293 39.6935 32.2092 41.1993 32.2432C44.0245 32.2696 46.8035 32.9651 49.3099 34.273C51.8162 35.5809 53.9789 37.4643 55.6217 39.7696C57.3749 42.3554 58.4423 45.3465 58.7232 48.4608C59.1316 52.0704 59.4762 55.7184 59.5273 59.3536C59.5597 60.4289 59.6835 61.4994 59.8974 62.5536C60.0911 63.5151 60.2022 64.4914 60.2293 65.472C60.2293 67.072 60.2293 68.6848 60.2931 70.2464C60.3697 74.368 61.0589 78.8096 60.6632 82.9056L60.676 82.9824ZM62.8202 24.32C59.1316 25.3568 58.8253 20.1984 60.2675 18.2528C61.0979 17.1937 62.1284 16.3094 63.3002 15.6504C64.4719 14.9915 65.7618 14.5709 67.0959 14.4128C69.2146 14.08 72.2012 13.4784 72.6351 16.1408C72.911 17.7334 73.0985 19.3401 73.1967 20.9536C73.1967 21.8112 73.1967 24.1536 74.0902 24.7936C75.4431 25.7152 80.2293 24.896 81.7481 24.64C82.4756 24.512 82.8457 23.9104 82.9479 21.6576C83.0437 20.3089 83.0052 18.9539 82.8329 17.6128C82.7006 16.4313 82.6325 15.2434 82.6288 14.0544C82.5242 13.6016 82.4898 13.1353 82.5266 12.672C82.8457 11.4816 84.4156 11.6096 85.5515 11.5712C86.2152 11.5712 86.8279 11.4816 87.5171 11.4048C88.2063 11.328 88.3722 11.1488 88.7934 11.8016C89.3039 12.6592 88.6913 13.76 88.7934 14.6688C88.8955 15.5776 88.8955 16.832 88.8955 17.9584C88.8955 19.9424 89.1508 21.9392 89.1508 23.9232C89.1508 27.7632 89.0104 30.3232 88.8828 34.6496C88.8828 35.8272 88.5764 37.6064 88.5126 38.7712C88.5126 39.3856 88.7551 40.4096 88.4105 40.9472C87.8872 41.7792 83.3052 41.856 82.4373 41.2416C81.5694 40.6272 82.616 35.4176 82.4373 33.1648C82.3352 31.808 82.7436 30.1312 81.8885 30.144C80.4079 30.144 75.2771 29.9264 74.2305 30.6432C73.184 31.36 73.6307 34.2656 73.5924 35.0976C73.4903 37.2608 74.0136 41.4976 73.1712 41.6384C71.1163 41.9328 67.7979 42.9184 67.6447 40.5504C67.4601 35.6846 67.5624 30.8121 67.951 25.9584C68.0404 24.3456 68.653 17.6512 65.092 19.4688C63.4073 20.3264 64.7475 20.7488 64.9006 21.8624C65.0538 22.976 63.7775 24.0896 62.833 24.3456L62.8202 24.32ZM65.0155 51.3152C64.2114 49.8304 64.1603 47.0656 65.5643 46.6944C80.3696 44.1344 93.4903 46.7712 108.474 45.2992C112.903 44.864 130.07 46.5792 134.818 42.304C136.362 40.9216 135.788 38.464 135.915 35.4688C135.979 33.8688 132.52 28.5952 130.81 26.0736C129.189 23.6418 127.31 21.3931 125.207 19.3664C123.624 17.9072 120.587 16.192 122.565 13.824C123.509 12.6976 126.177 11.264 127.517 12.7744C129.342 14.7712 131.78 16.4352 133.184 18.5728C134.446 20.159 135.577 21.8457 136.566 23.616C137.214 24.7223 138.121 25.6537 139.208 26.3296C140.893 27.0592 143.216 17.2672 146.126 16.4352C147.836 15.9488 151.308 17.7152 151.576 18.6368C152.086 20.4672 148.232 25.9456 146.611 28.16C144.594 30.912 142.961 33.0368 142.782 34.3808C142.284 39.9104 144.058 47.2832 137.179 49.8816C133.095 51.4304 129.636 50.2528 125.449 50.4192C121.467 50.5728 117.485 50.752 113.414 50.6624C103.612 50.4576 93.8094 50.4832 84.0582 50.816C78.5828 50.9952 73.8476 52.1984 69.189 51.584C67.9127 51.4176 65.4366 52.1088 65.0027 51.3152H65.0155ZM102.744 64.7808C102.488 70.1312 102.054 75.5456 101.888 80.9472C101.723 85.9648 101.774 90.9696 101.646 95.9872C101.582 98.368 101.646 100.813 101.391 103.181C101.135 105.549 101.263 107.802 100.051 109.773C98.2254 112.742 95.3664 113.856 92.1246 114.099C90.1718 114.24 89.0869 114.842 87.1086 114.688C86.8917 114.688 85.1686 114.624 84.9517 114.586C82.7432 114.134 80.5812 113.479 78.4935 112.627C73.3882 110.63 71.3588 104.704 70.7334 102.246C69.3678 96.8448 69.4571 90.9312 69.5847 85.696C69.6741 81.6256 70.0953 77.504 69.9038 73.4208C69.7175 69.4731 69.2912 65.5405 68.6275 61.6448C68.117 58.624 69.2018 57.1136 72.316 56.6656C73.669 56.4736 76.0812 56.4352 77.1916 57.3952C78.0143 58.4325 78.464 59.7178 78.4679 61.0432C78.6339 62.72 79.1061 64.384 79.1699 66.0864C79.3231 70.0416 79.3869 74.0352 79.2975 78.0288C79.2975 79.3088 79.2975 80.5888 79.2975 81.8688C79.2975 82.4064 79.2975 83.0336 79.2975 83.7376C79.221 89.7664 78.5445 99.84 82.1055 103.462C82.8073 104.103 83.6535 104.564 84.5716 104.804C85.4897 105.045 86.4523 105.059 87.377 104.845C88.3018 104.632 89.161 104.196 89.8812 103.576C90.6013 102.956 91.1609 102.171 91.512 101.286C92.1525 98.9127 92.5207 96.4735 92.6096 94.016C93.0818 89.8176 92.8904 85.7216 93.0691 81.4976C93.3627 76.1299 93.3627 70.7501 93.0691 65.3824C92.9542 63.5136 92.1501 60.4032 92.9797 58.6624C93.7789 57.554 94.9468 56.7687 96.2726 56.448C101.569 55.0656 103.075 60.7232 102.871 64.7936L102.744 64.7808ZM141.876 107.52C139.566 109.507 136.872 110.993 133.962 111.885C130.939 112.949 127.818 113.712 124.645 114.163C124.076 114.227 123.513 114.334 122.961 114.483C121.94 114.752 120.408 114.829 119.298 115.11C117.358 115.49 115.36 115.447 113.439 114.982C111.691 114.688 109.789 114.688 109.891 112.768C109.992 110.333 111.042 108.035 112.814 106.368C113.618 105.638 114.345 105.408 114.639 104.333C114.773 103.114 114.708 101.882 114.448 100.685C114.448 100.186 114.179 89.8304 114.179 89.8304C114.179 85.76 114.179 81.6768 114.422 77.6064C114.511 75.8016 114.55 73.9584 114.779 72.1664C114.867 70.0574 114.475 67.9561 113.631 66.0224C113.184 65.152 111.078 63.1424 110.631 62.0928C109.955 60.608 109.355 57.8944 110.976 57.152C113.465 56.0512 116.936 56.7552 119.591 56.6272C122.636 56.6084 125.679 56.7751 128.704 57.1264C132.916 57.472 136.247 58.1504 139.732 60.7232C140.472 61.2608 143.152 65.28 143.56 65.7152C144.078 66.1373 144.511 66.6542 144.837 67.2384C146.763 71.3596 148.001 75.7704 148.5 80.2944C149.24 86.9504 146.93 103.053 141.85 107.546L141.876 107.52ZM183.931 94.976C183.144 96.315 181.999 97.406 180.625 98.1248L179.897 98.6112C177.718 99.9648 175.335 100.955 172.839 101.542C171.266 101.973 169.719 102.494 168.206 103.104C165.475 104.256 162.718 105.178 159.936 106.112C158.794 106.502 157.604 106.734 156.4 106.803C150.019 106.995 154.371 99.4944 156.298 96.9216C157.83 94.8864 157.294 92.2368 157.638 89.9072C157.79 88.6329 157.862 87.3505 157.855 86.0672C157.957 81.2288 157.179 76.3904 157.434 71.5264C157.919 62.5664 156.158 53.6064 156.528 44.6464C156.676 43.8818 156.653 43.0938 156.461 42.3391C156.269 41.5844 155.913 40.8818 155.418 40.2816C154.499 39.3344 153.273 38.848 152.699 37.5808C151.818 35.648 150.427 31.3728 151.589 30.848C153.287 30.5273 155.036 30.615 156.694 31.104C158.714 31.3521 160.72 31.7024 162.705 32.1536C166.532 33.3201 170.283 34.7222 173.937 36.352C176.49 37.4144 179.412 37.632 181.952 38.7072C183.803 39.5136 182.948 42.176 182.527 43.648C181.94 45.6448 181.442 47.0656 180.178 47.1808C178.482 47.1372 176.817 46.7176 175.303 45.952C174.433 45.5583 173.542 45.2122 172.635 44.9152L171.499 44.5952C168.947 43.904 165.245 42.56 166.675 46.6688C166.803 47.006 166.906 47.3526 166.981 47.7056C167.039 48.0401 167.078 48.3777 167.096 48.7168V49.3952C167.096 49.7408 167.096 50.0992 167.16 50.4448C167.541 52.935 167.725 55.4518 167.709 57.9712C167.743 59.7681 167.935 61.5585 168.283 63.3216C168.64 64.7424 171.104 63.7696 172.342 63.808C174.409 63.808 176.477 63.808 178.545 63.808C180.842 63.808 181.672 64.5248 181.876 66.6624C182.016 68.1088 182.552 71.1936 181.48 72.3712C180.816 73.1008 177.37 72.6528 175.775 72.6144C173.874 72.5184 171.97 72.5184 170.07 72.6144C167.785 72.7808 167.045 74.2016 167.249 76.4544C167.326 77.312 166.802 85.1584 166.713 87.3216C166.713 88.6016 166.585 89.8816 166.611 91.1616C166.611 92.1856 166.471 93.7216 167.887 92.9792C170.21 91.8272 172.993 91.9424 175.545 91.0848C176.515 90.7392 177.358 90.5344 178.162 90.304C179.139 90.0496 180.099 89.7289 181.033 89.344C181.672 89.0496 182.501 88.5504 183.075 89.2288C184.062 90.9898 184.38 93.0496 183.969 95.0272L183.931 94.976Z" fill="white"></path>
<path d="M187.032 40.4096V36.8896H185.896V36.224H188.96V36.9024H187.824V40.4224H187.032V40.4096Z" fill="black"></path>
<path d="M192.878 40.4096V37.2224L191.933 40.4096H191.27L190.313 37.2224V40.4096H189.572V36.224H190.619L191.525 39.36L192.47 36.224H193.58V40.4224H192.814L192.878 40.4096Z" fill="black"></path>
</g>
</svg>